<?xml version="1.0" encoding="utf-8"?>
<!-- Generator: Adobe Illustrator 26.0.1, SVG Export Plug-In . SVG Version: 6.00 Build 0)  -->
<svg version="1.1" id="Camada_1" xmlns="http://www.w3.org/2000/svg" xmlns:xlink="http://www.w3.org/1999/xlink" x="0px" y="0px"
	 viewBox="0 0 1818.4 1287.7" style="enable-background:new 0 0 1818.4 1287.7;" xml:space="preserve">
<style type="text/css">
	.st0{fill:#2C2C2C;}
	.st1{opacity:0.62;}
	.st2{fill:none;stroke:#FFD700;stroke-width:0.4931;stroke-miterlimit:10;}
	.st3{fill:none;stroke:#FFD700;stroke-width:0.4594;stroke-miterlimit:10;}
	.st4{fill:none;stroke:#FFD700;stroke-width:0.5816;stroke-miterlimit:10;}
	.st5{fill:none;stroke:#FFD700;stroke-width:0.6535;stroke-miterlimit:10;}
	.st6{fill:none;stroke:#FFD700;stroke-width:0.4423;stroke-miterlimit:10;}
	.st7{fill:none;stroke:#FFD700;stroke-width:0.3297;stroke-miterlimit:10;}
	.st8{fill:none;stroke:#FFD700;stroke-width:0.3889;stroke-miterlimit:10;}
	.st9{fill:none;stroke:#FFD700;stroke-width:1.155;stroke-miterlimit:10;}
	.st10{fill:none;stroke:#FFD700;stroke-width:1.0761;stroke-miterlimit:10;}
	.st11{fill:none;stroke:#FFD700;stroke-width:1.3624;stroke-miterlimit:10;}
	.st12{fill:none;stroke:#FFD700;stroke-width:1.5308;stroke-miterlimit:10;}
	.st13{fill:none;stroke:#FFD700;stroke-width:1.036;stroke-miterlimit:10;}
	.st14{fill:none;stroke:#FFD700;stroke-width:0.7723;stroke-miterlimit:10;}
	.st15{fill:none;stroke:#FFD700;stroke-width:0.9109;stroke-miterlimit:10;}
</style>
<g>
	<rect x="-0.3" y="1" class="st0" width="1816.7" height="1286.1"/>
</g>
<g class="st1">
	<ellipse class="st2" cx="583.5" cy="315.1" rx="118" ry="158.7"/>
	<ellipse class="st3" cx="583.7" cy="315.1" rx="110" ry="147.7"/>
	<ellipse class="st4" cx="583.4" cy="314.9" rx="91.5" ry="124.2"/>
	<ellipse class="st5" cx="583.4" cy="314.9" rx="102.5" ry="139.9"/>
	<ellipse class="st6" cx="583.9" cy="314.3" rx="69" ry="95.3"/>
	<ellipse class="st7" cx="583.5" cy="315.1" rx="80.3" ry="104.3"/>
	<ellipse class="st8" cx="583.5" cy="315" rx="62.2" ry="81.6"/>
</g>
<g class="st1">
	<ellipse class="st2" cx="922.2" cy="1057.4" rx="118" ry="158.7"/>
	<ellipse class="st3" cx="922.4" cy="1057.4" rx="110" ry="147.7"/>
	<ellipse class="st4" cx="922.1" cy="1057.3" rx="91.5" ry="124.2"/>
	<ellipse class="st5" cx="922.1" cy="1057.3" rx="102.5" ry="139.9"/>
	<ellipse class="st6" cx="922.6" cy="1056.7" rx="69" ry="95.2"/>
	<ellipse class="st7" cx="922.2" cy="1057.4" rx="80.3" ry="104.3"/>
	<ellipse class="st8" cx="922.2" cy="1057.3" rx="62.2" ry="81.6"/>
</g>
<g class="st1">
	<ellipse class="st2" cx="1434.4" cy="568.2" rx="118" ry="158.7"/>
	<ellipse class="st3" cx="1434.5" cy="568.2" rx="110" ry="147.7"/>
	<ellipse class="st4" cx="1434.3" cy="568.1" rx="91.5" ry="124.2"/>
	<ellipse class="st5" cx="1434.3" cy="568.1" rx="102.5" ry="139.9"/>
	<ellipse class="st6" cx="1434.7" cy="567.5" rx="69" ry="95.3"/>
	<ellipse class="st7" cx="1434.4" cy="568.2" rx="80.3" ry="104.3"/>
	<ellipse class="st8" cx="1434.3" cy="568.1" rx="62.2" ry="81.6"/>
</g>
<g class="st1">
	<path class="st9" d="M1521.6,1285.8c1.6-191.3,133.2-347.6,292.7-347.6c0.2,0,0.4,0,0.6,0"/>
	<path class="st10" d="M1541.8,1285.9c1.4-178.4,124-324.2,272.5-324.2c0.8,0,1.6,0,2.3,0"/>
	<path class="st11" d="M1585.1,1286.1c1.6-148,104.4-268.8,228.9-268.8c0.4,0,0.9,0,1.3,0"/>
	<path class="st12" d="M1556.1,1285.5c1.9-165.7,117.8-300.9,258-300.9c0.5,0,1,0,1.5,0"/>
	<path class="st13" d="M1637.3,1287.3c0.5-112.2,79.6-204.2,175.6-204.2c0.6,0,1.1,0,1.7,0"/>
	<path class="st14" d="M1621.9,1287c1-130.1,87.6-236.5,192.4-236.5c0.2,0,0.5,0,0.8,0"/>
	<path class="st15" d="M1662.3,1288.1c0.6-101.1,68.4-183.7,150.5-183.7c0.9,0,1.8,0,2.6,0"/>
</g>
<g class="st1">
	<path class="st9" d="M0.3,941.8c0.2,0,0.4,0,0.6,0c159.5,0,291.1,156.4,292.7,347.6"/>
	<path class="st10" d="M-1.4,965.2c0.8,0,1.6,0,2.3,0c148.5,0,271.1,145.8,272.5,324.2"/>
	<path class="st11" d="M-0.1,1020.9c0.4,0,0.9,0,1.3,0c124.5,0,227.3,120.8,228.9,268.8"/>
	<path class="st12" d="M-0.3,988.2c0.5,0,1,0,1.5,0c140.2,0,256,135.1,258,300.9"/>
	<path class="st13" d="M0.6,1086.6c0.6,0,1.1,0,1.7,0c96,0,175.2,92.1,175.6,204.2"/>
	<path class="st14" d="M0.2,1054.1c0.2,0,0.5,0,0.8,0c104.9,0,191.4,106.4,192.4,236.5"/>
	<path class="st15" d="M-0.1,1108c0.9,0,1.8,0,2.6,0c82.1,0,149.9,82.7,150.5,183.7"/>
</g>
<g class="st1">
	<path class="st9" d="M293.5-1.7C291.9,189.6,160.3,346,0.8,346c-0.2,0-0.4,0-0.6,0"/>
	<path class="st10" d="M273.3-1.8C272,176.7,149.4,322.5,0.8,322.5c-0.8,0-1.6,0-2.3,0"/>
	<path class="st11" d="M230-2c-1.6,148-104.4,268.8-228.9,268.8c-0.4,0-0.9,0-1.3,0"/>
	<path class="st12" d="M259.1-1.4c-1.9,165.7-117.8,300.9-258,300.9c-0.5,0-1,0-1.5,0"/>
	<path class="st13" d="M177.8-3.2C177.3,109,98.2,201,2.2,201c-0.6,0-1.1,0-1.7,0"/>
	<path class="st14" d="M193.3-2.9c-1,130.1-87.6,236.5-192.4,236.5c-0.2,0-0.5,0-0.8,0"/>
	<path class="st15" d="M152.9-4C152.2,97,84.5,179.8,2.4,179.8c-0.9,0-1.8,0-2.6,0"/>
</g>
<g class="st1">
	<path class="st9" d="M1816.1,347.3c-0.2,0-0.4,0-0.6,0c-159.5,0-291.1-156.4-292.7-347.6"/>
	<path class="st10" d="M1817.8,323.8c-0.8,0-1.6,0-2.3,0C1667,323.8,1544.4,178,1543-0.5"/>
	<path class="st11" d="M1816.5,268c-0.4,0-0.9,0-1.3,0c-124.5,0-227.3-120.8-228.9-268.8"/>
	<path class="st12" d="M1816.7,300.8c-0.5,0-1,0-1.5,0c-140.2,0-256-135.1-258-300.9"/>
	<path class="st13" d="M1815.8,202.3c-0.6,0-1.1,0-1.7,0c-96,0-175.2-92.1-175.6-204.2"/>
	<path class="st14" d="M1816.2,234.9c-0.2,0-0.5,0-0.8,0c-104.8,0-191.4-106.4-192.4-236.5"/>
	<path class="st15" d="M1816.5,181.1c-0.9,0-1.8,0-2.6,0c-82.1,0-149.9-82.7-150.5-183.7"/>
</g>
</svg>
